PathFileType	4	(X/Y/Z)	C:/Users/opensim2020/Desktop/walking_exp_matlab/subject02_walking13_straight_04.trc	
DataRate	CameraRate	NumFrames	NumMarkers	Units	OrigDataRate	OrigDataStartFrame	OrigNumFrames	
100.00	100.00	9	41	mm	100.00	1795	118	
Frame#	Time	LFHD			RFHD			LBHD			RBHD			C7			T10			CLAV			STRN			RBAK			LSHO			LUPA			LELB			LFRM			LWRA			LWRB			LFIN			RSHO			RUPA			RELB			RFRM			RWRA			RWRB			RFIN			LASI			RASI			LPSI			RPSI			LTHI			LKNE			LTIB			LANK			LHEE			LTOE			RTHI			RKNE			RTIB			RANK			RHEE			RTOE			*39			*40			
		X1	Y1	Z1	X2	Y2	Z2	X3	Y3	Z3	X4	Y4	Z4	X5	Y5	Z5	X6	Y6	Z6	X7	Y7	Z7	X8	Y8	Z8	X9	Y9	Z9	X10	Y10	Z10	X11	Y11	Z11	X12	Y12	Z12	X13	Y13	Z13	X14	Y14	Z14	X15	Y15	Z15	X16	Y16	Z16	X17	Y17	Z17	X18	Y18	Z18	X19	Y19	Z19	X20	Y20	Z20	X21	Y21	Z21	X22	Y22	Z22	X23	Y23	Z23	X24	Y24	Z24	X25	Y25	Z25	X26	Y26	Z26	X27	Y27	Z27	X28	Y28	Z28	X29	Y29	Z29	X30	Y30	Z30	X31	Y31	Z31	X32	Y32	Z32	X33	Y33	Z33	X34	Y34	Z34	X35	Y35	Z35	X36	Y36	Z36	X37	Y37	Z37	X38	Y38	Z38	X39	Y39	Z39	X40	Y40	Z40	X41	Y41	Z41	

60	0.590	1446.29321	40.44363	1692.80859	1306.95410	66.72593	1666.10229	1480.25720	176.82332	1638.57861	1343.77612	214.84541	1612.36523	1415.72559	258.23566	1486.31506	1415.91016	293.97244	1204.85144	1426.59778	116.04669	1424.37634	1430.89429	52.71717	1258.19153	1364.76611	308.38126	1300.49548	1590.11328	188.48267	1477.30396	1713.49365	151.23264	1310.64954	1771.99475	91.14928	1193.94617	1801.50146	-26.37251	1133.77954	1780.69495	-162.73595	1121.80408	1813.30151	-138.54941	1082.10144	1818.88672	-205.88556	1072.75269	1230.65674	189.46227	1442.14551	1162.98462	258.13080	1260.48572	1151.26196	277.47366	1116.77661	1126.49219	287.58966	999.14825	1133.49731	274.93860	863.16278	1115.32166	326.84106	874.96747	1103.55554	311.61548	804.41791	1580.12964	82.03149	947.90491	1328.91968	35.52391	947.99609	1460.08887	273.16788	992.29095	1346.93433	259.81958	993.77869	1623.17407	228.66937	654.81531	1599.70923	307.32214	473.60974	1590.66821	456.83319	348.36786	1563.39783	572.98804	153.10576	1508.49353	606.27826	149.91304	1576.70374	467.19470	32.93456	1241.79822	18.70125	659.07166	1294.22095	-47.45290	465.18835	1287.31128	-53.64631	277.21179	1325.38232	-68.88634	85.27673	1378.56689	-35.01893	35.54512	1328.14844	-224.77438	39.49561	1367.65442	145.94263	1767.34961	-3360.44995	2845.44360	1034.11719 
61	0.600	1444.76746	27.17912	1693.71057	1305.47546	53.51972	1666.98523	1479.10754	163.83563	1639.86157	1342.23230	201.61400	1613.56775	1414.18152	244.86014	1487.33801	1414.95166	279.12927	1205.04895	1425.06201	102.88776	1425.96362	1429.20557	38.13610	1260.22827	1363.49854	294.40976	1300.61987	1589.30994	175.91481	1478.18628	1711.74597	139.73920	1310.29871	1770.13318	80.48051	1193.16223	1798.39331	-37.43027	1133.03149	1776.72461	-173.31233	1121.80933	1809.23059	-150.04488	1081.63672	1813.77271	-217.62816	1072.73584	1229.15515	176.52223	1442.71497	1161.60718	243.72218	1260.26831	1150.56006	262.69592	1116.62744	1125.58911	272.82260	999.30676	1132.28003	259.86700	863.09509	1114.29431	311.68570	875.08942	1102.72131	296.68741	804.59790	1576.53430	64.82448	948.25964	1326.82019	19.77954	949.46967	1459.74109	256.69736	993.12897	1345.27588	243.63499	996.31097	1622.79907	209.27255	654.48126	1601.79797	284.77618	473.66354	1590.07642	437.80179	353.93265	1564.02661	559.96497	162.75420	1507.84851	590.93585	161.55688	1576.70605	466.22403	33.25175	1241.85168	8.29413	658.11426	1296.31641	-63.81488	467.07999	1288.17041	-66.06972	278.83704	1326.70630	-71.16205	88.18492	1378.76135	-35.97705	36.18972	1330.68347	-227.61993	38.06203	1366.17810	132.53545	1768.53027	-3360.27734	2845.20435	1034.17017 
62	0.610	1443.09949	13.86563	1694.58362	1304.00842	40.44707	1668.00745	1477.69714	150.72273	1641.12439	1340.84094	188.55606	1614.86450	1412.84766	231.50276	1488.58276	1414.09741	264.73926	1205.58484	1423.68640	89.71553	1427.68970	1427.55334	23.60459	1262.38013	1362.00049	280.32104	1301.02930	1588.38208	163.17540	1479.30505	1709.69421	128.04327	1310.09814	1767.71228	70.06982	1192.24890	1795.05103	-47.85316	1131.84412	1772.18164	-183.72578	1120.38916	1804.99268	-160.61673	1080.20825	1808.83582	-228.43246	1071.43494	1227.58240	163.42529	1443.51611	1160.43420	229.49646	1260.51538	1149.68469	247.49399	1116.87720	1124.61536	257.18842	999.45544	1131.00757	244.03543	863.44312	1113.25574	296.23804	875.25775	1101.76282	281.01907	804.54730	1572.96130	48.06611	949.18921	1324.54590	4.12038	951.24768	1459.55933	240.61653	994.19745	1343.72864	227.80931	999.04010	1622.67297	189.17975	653.73102	1603.40637	260.68250	472.86603	1590.24731	416.16177	358.57446	1564.89307	543.84955	171.63173	1507.97510	573.42963	172.99132	1576.92883	464.12067	34.09142	1242.64929	-3.72125	657.52551	1297.92700	-78.58359	467.79962	1289.74512	-76.95506	279.73792	1326.86584	-75.33708	88.62770	1379.18689	-36.76084	36.60800	1330.78003	-229.22862	36.96642	1364.73096	119.16492	1769.75366	-3357.27637	2845.86133	1034.25830 
63	0.620	1441.72913	0.74936	1695.70093	1302.62842	27.40512	1669.17700	1476.08081	137.46027	1642.38770	1339.60010	175.53917	1616.22546	1411.65222	218.30421	1489.67737	1413.16187	250.58327	1206.32947	1422.45764	76.52290	1429.34998	1426.01270	9.17034	1264.55823	1360.83545	266.22510	1301.81445	1587.33667	150.34792	1480.61426	1707.87292	116.55379	1310.31702	1765.14539	59.98601	1191.36792	1791.54065	-57.72588	1130.23450	1768.04700	-193.15350	1118.28796	1800.71973	-170.40027	1077.94458	1803.79956	-238.19273	1068.72131	1226.72388	150.90443	1444.85254	1159.24390	215.24030	1261.15540	1148.78735	231.90486	1117.40222	1123.62561	241.06281	1000.19580	1129.85181	227.19699	864.09723	1112.09875	279.29272	875.64417	1100.78125	264.20035	804.89197	1568.84106	31.86009	950.12726	1322.17126	-11.37025	953.18732	1459.25146	225.17619	995.50195	1342.50037	212.27634	1001.55151	1622.40271	168.67389	652.39819	1604.96350	235.71309	471.41205	1590.93518	392.61362	361.85184	1566.48779	525.49921	180.07822	1508.87524	554.24646	183.94617	1576.70605	459.53278	35.17530	1244.16101	-17.78401	658.04272	1299.06470	-91.45686	467.84644	1290.18091	-84.14864	280.28244	1327.69141	-76.51196	87.99313	1379.61926	-37.00386	36.75799	1330.99768	-229.98950	36.32551	1363.22913	105.84207	1770.94421	-3360.32715	2845.27490	1034.20496 
64	0.630	1440.29480	-12.36601	1697.22839	1301.23560	14.45078	1670.49146	1475.21277	124.55963	1644.07129	1338.34314	162.53822	1617.71570	1410.66724	205.33743	1490.69995	1412.23730	236.62094	1207.42236	1421.41516	63.26580	1431.00293	1424.67249	-5.00811	1266.71375	1359.90076	252.24977	1302.70776	1585.97351	137.13150	1481.94751	1706.19189	105.39155	1310.85217	1762.39441	50.24894	1190.52576	1788.00208	-67.01510	1128.14417	1763.60742	-202.23282	1115.00879	1796.12939	-179.62308	1074.62354	1798.90759	-247.10182	1064.85107	1225.97595	138.43715	1446.40955	1158.09155	200.83202	1262.24084	1147.74609	216.12794	1118.27991	1122.76038	224.04538	1000.80847	1128.67810	209.70074	865.00623	1110.44067	261.38260	876.32709	1099.78748	246.39819	805.36798	1565.13159	16.20676	951.21765	1319.83472	-26.49619	955.41986	1458.85449	210.22433	996.86304	1341.44312	197.33528	1003.68079	1622.10388	147.77559	650.44696	1606.61914	210.00830	469.62192	1592.14111	367.48691	363.70996	1567.92664	504.94714	187.63458	1509.51965	533.22870	194.82086	1576.41614	451.91324	38.96530	1245.08130	-33.99708	659.69385	1299.99976	-102.39915	467.53027	1290.53064	-88.09949	279.91479	1328.03479	-77.47007	88.32330	1379.76147	-37.08778	36.86586	1331.74438	-230.74438	36.05132	1361.93018	92.89444	1772.40820	-3357.45752	2845.95288	1034.35461 
65	0.640	1438.90613	-25.53259	1699.04419	1299.69543	1.45791	1671.97754	1474.12793	111.40638	1646.01575	1337.39258	149.58734	1619.47302	1409.90259	192.58618	1491.93921	1411.28357	222.98465	1208.93872	1420.59534	50.04655	1432.80652	1423.60718	-18.28438	1268.68774	1358.74792	237.92862	1303.62097	1585.26648	124.59127	1483.59644	1704.10254	93.78694	1310.98218	1759.57190	40.75352	1189.65442	1784.49988	-76.01136	1125.74194	1758.90808	-211.08191	1110.60742	1792.07703	-187.77197	1070.95947	1793.99487	-255.28380	1059.71582	1225.23401	125.81068	1448.16821	1157.28137	186.71738	1263.44263	1146.74292	200.12643	1119.29724	1122.00293	207.25038	1002.16583	1127.31738	191.03494	865.73920	1109.26526	243.18994	876.98846	1098.79028	227.64537	805.95581	1561.80518	0.95074	952.30402	1317.54407	-41.06358	957.75751	1458.33545	195.74554	998.31616	1340.58008	182.96326	1005.40234	1621.69165	126.41348	648.11316	1608.39734	183.53714	467.71930	1594.38074	341.45120	364.68961	1568.45386	484.20093	195.74591	1508.89856	511.12054	205.04613	1577.68835	440.21692	43.39860	1245.12231	-49.98398	662.14362	1300.35767	-110.90777	466.83417	1291.23193	-90.47578	279.24387	1328.20300	-78.15517	88.27668	1379.90588	-37.24443	37.03724	1331.66162	-230.89836	35.90282	1360.69312	79.98086	1774.18347	-3357.36768	2845.92090	1034.36035 
66	0.650	1437.82043	-38.57401	1701.26221	1298.60071	-11.35678	1673.84082	1472.85010	97.99741	1648.15259	1336.50098	136.58928	1621.45959	1409.22974	179.84007	1493.67676	1409.97791	209.24170	1210.71252	1419.88965	37.08273	1434.86707	1422.86816	-31.61111	1270.92566	1358.28833	224.40201	1305.15076	1584.58630	111.89851	1485.28992	1702.47119	82.87049	1311.34863	1756.69080	31.51237	1188.75916	1780.73047	-84.26689	1122.68567	1754.58972	-218.97386	1105.62695	1787.69275	-195.52522	1066.19592	1789.21399	-262.62039	1053.65784	1224.73010	113.39907	1450.17676	1156.59363	172.40591	1265.04065	1145.61853	183.83907	1120.42114	1120.89063	189.39461	1003.28473	1126.54248	172.13983	867.27155	1107.99634	224.05016	877.89728	1097.70923	208.09352	806.90656	1559.17358	-13.70338	953.43304	1315.48499	-55.11050	960.02692	1457.71716	181.79849	1000.01050	1339.90356	168.90553	1007.01013	1621.69543	104.80305	646.20380	1610.47791	156.89687	466.23550	1597.25110	314.84247	365.43649	1567.46423	462.70636	203.42943	1507.39844	487.77466	213.25229	1582.91736	424.00009	50.78030	1244.48303	-65.71737	664.18066	1300.06921	-117.37273	466.15961	1291.78467	-92.40767	278.90051	1328.22156	-78.39312	88.45436	1379.90161	-37.23066	37.32238	1332.08923	-231.18690	35.87030	1359.38110	66.96017	1776.12402	-3357.32642	2845.82446	1034.31982 
67	0.660	1436.52588	-51.71849	1703.49341	1297.42847	-24.25383	1675.73523	1472.28076	84.99225	1650.73474	1335.79346	123.68027	1623.64050	1408.61853	166.84227	1495.92493	1408.41431	195.34444	1212.54529	1419.39429	24.28221	1437.22522	1422.38220	-44.76957	1273.24170	1357.88318	211.22644	1307.15063	1583.95740	99.21930	1486.93457	1700.37244	71.82838	1311.35181	1753.61426	22.53500	1187.79321	1777.21362	-91.91928	1119.41248	1749.90894	-226.72491	1099.43701	1783.87219	-202.21899	1061.18933	1784.85486	-269.07629	1046.75623	1224.13477	100.42490	1452.42651	1156.05078	158.18529	1266.64270	1144.45081	167.57095	1122.18323	1119.74597	171.31656	1004.59918	1125.73376	152.52646	868.91351	1106.76611	204.38091	878.90082	1096.70557	187.51736	808.11859	1557.25000	-27.56904	954.75226	1313.82446	-68.78323	962.30920	1456.97009	168.22159	1001.94580	1339.33459	155.35912	1008.64502	1621.75708	82.95946	645.45209	1612.44153	129.90121	465.31906	1600.12769	288.15424	366.65714	1565.29626	440.06839	210.92900	1504.48596	464.34677	218.95522	1587.22717	402.91644	58.65748	1244.33997	-80.07088	666.73499	1299.42175	-122.57374	465.63611	1291.87183	-94.76926	278.76965	1328.52283	-78.52721	88.79322	1379.97974	-37.12684	37.30760	1331.98901	-231.26950	36.05479	1358.06445	53.74284	1778.23523	-3357.27905	2845.84595	1034.37537 
68	0.670	1435.10437	-65.09059	1705.66882	1296.32446	-37.11302	1677.67200	1471.24072	71.63421	1653.21313	1335.12573	110.82403	1625.92419	1408.06824	153.81421	1498.59387	1407.24695	181.91248	1214.81860	1419.09363	11.58300	1439.74951	1422.16650	-57.65907	1275.64600	1357.15991	198.32048	1309.45972	1583.83960	86.93555	1488.97144	1698.55078	61.29942	1311.57300	1750.21729	13.57560	1186.68115	1773.59241	-99.27677	1115.94885	1745.60010	-233.52139	1092.82520	1779.92334	-208.30014	1055.40271	1779.88269	-274.90646	1038.56494	1223.39417	87.01357	1454.79675	1155.29065	143.15938	1268.61230	1143.16089	151.06221	1123.81287	1118.72632	153.21179	1006.43518	1124.93567	132.43457	870.79730	1105.71252	184.18239	880.17340	1095.60376	166.22908	809.60974	1556.02710	-41.16711	955.89160	1312.69141	-82.08356	964.45148	1456.17529	155.04515	1004.12744	1338.80103	142.42075	1010.58575	1621.88770	61.91308	646.52509	1613.86719	102.94090	465.34317	1602.05945	261.64612	369.29456	1562.62341	416.03427	217.73595	1501.61963	440.31189	223.06297	1590.93469	377.30164	65.86950	1244.28552	-92.78797	668.73187	1298.54846	-128.35713	465.38257	1291.08850	-97.65834	278.68924	1328.53394	-78.87630	88.97607	1379.94250	-37.03989	37.34493	1332.00647	-231.23868	36.02638	1356.81091	40.59655	1780.48120	-3357.30566	2845.90625	1034.21509 
